HIERARCHY
ROOT Hips
{
	OFFSET 0.00000 0.00000 0.00000
	CHANNELS 6 Xposition Yposition Zposition Zrotation Yrotation Xrotation 
	JOINT LHipJoint
	{
		OFFSET 0 0 0
		CHANNELS 3 Zrotation Yrotation Xrotation
		JOINT LeftUpLeg
		{
			OFFSET 1.62964 -1.40469 0.78906
			CHANNELS 3 Zrotation Yrotation Xrotation
			JOINT LeftLeg
			{
				OFFSET 2.29640 -6.30932 0.00000
				CHANNELS 3 Zrotation Yrotation Xrotation
				JOINT LeftFoot
				{
					OFFSET 2.29451 -6.30412 0.00000
					CHANNELS 3 Zrotation Yrotation Xrotation
					JOINT LeftToeBase
					{
						OFFSET 0.03611 -0.09921 1.56387
						CHANNELS 3 Zrotation Yrotation Xrotation
						End Site
						{
							OFFSET 0.00000 -0.00000 0.80291
						}
					}
				}
			}
		}
	}
	JOINT RHipJoint
	{
		OFFSET 0 0 0
		CHANNELS 3 Zrotation Yrotation Xrotation
		JOINT RightUpLeg
		{
			OFFSET -1.73712 -1.40469 0.78906
			CHANNELS 3 Zrotation Yrotation Xrotation
			JOINT RightLeg
			{
				OFFSET -2.28137 -6.26801 0.00000
				CHANNELS 3 Zrotation Yrotation Xrotation
				JOINT RightFoot
				{
					OFFSET -2.28681 -6.28298 0.00000
					CHANNELS 3 Zrotation Yrotation Xrotation
					JOINT RightToeBase
					{
						OFFSET -0.15927 -0.43759 1.61103
						CHANNELS 3 Zrotation Yrotation Xrotation
						End Site
						{
							OFFSET -0.00000 -0.00000 0.84630
						}
					}
				}
			}
		}
	}
	JOINT LowerBack
	{
		OFFSET 0 0 0
		CHANNELS 3 Zrotation Yrotation Xrotation
		JOINT Spine
		{
			OFFSET -0.04227 2.04338 -0.00225
			CHANNELS 3 Zrotation Yrotation Xrotation
			JOINT Spine1
			{
				OFFSET -0.02148 2.04482 -0.04273
				CHANNELS 3 Zrotation Yrotation Xrotation
				JOINT Neck
				{
					OFFSET 0 0 0
					CHANNELS 3 Zrotation Yrotation Xrotation
					JOINT Neck1
					{
						OFFSET 0.09180 1.44629 0.19359
						CHANNELS 3 Zrotation Yrotation Xrotation
						JOINT Head
						{
							OFFSET 0.00887 1.40645 0.14750
							CHANNELS 3 Zrotation Yrotation Xrotation
							End Site
							{
								OFFSET -0.00669 1.50671 0.03707
							}
						}
					}
				}
				JOINT LeftShoulder
				{
					OFFSET 0 0 0
					CHANNELS 3 Zrotation Yrotation Xrotation
					JOINT LeftArm
					{
						OFFSET 2.17674 1.86763 -0.06520
						CHANNELS 3 Zrotation Yrotation Xrotation
						JOINT LeftForeArm
						{
							OFFSET 4.65776 -0.00000 0.00000
							CHANNELS 3 Zrotation Yrotation Xrotation
							JOINT LeftHand
							{
								OFFSET 3.55539 -0.00000 0.00000
								CHANNELS 3 Zrotation Yrotation Xrotation
								JOINT LeftFingerBase
								{
									OFFSET 0 0 0
									CHANNELS 3 Zrotation Yrotation Xrotation
									JOINT LeftHandIndex1
									{
										OFFSET 0.70726 -0.00000 0.00000
										CHANNELS 3 Zrotation Yrotation Xrotation
										End Site
										{
											OFFSET 0.57022 -0.00000 0.00000
										}
									}
								}
								JOINT LThumb
								{
									OFFSET 0 0 0
									CHANNELS 3 Zrotation Yrotation Xrotation
									End Site
									{
										OFFSET 0.57892 -0.00000 0.57892
									}
								}
							}
						}
					}
				}
				JOINT RightShoulder
				{
					OFFSET 0 0 0
					CHANNELS 3 Zrotation Yrotation Xrotation
					JOINT RightArm
					{
						OFFSET -2.80694 1.55459 -0.32496
						CHANNELS 3 Zrotation Yrotation Xrotation
						JOINT RightForeArm
						{
							OFFSET -4.71925 -0.00000 -0.00000
							CHANNELS 3 Zrotation Yrotation Xrotation
							JOINT RightHand
							{
								OFFSET -3.56990 -0.00000 0.00000
								CHANNELS 3 Zrotation Yrotation Xrotation
								JOINT RightFingerBase
								{
									OFFSET 0 0 0
									CHANNELS 3 Zrotation Yrotation Xrotation
									JOINT RightHandIndex1
									{
										OFFSET -0.50776 -0.00000 0.00000
										CHANNELS 3 Zrotation Yrotation Xrotation
										End Site
										{
											OFFSET -0.40937 -0.00000 0.00000
										}
									}
								}
								JOINT RThumb
								{
									OFFSET 0 0 0
									CHANNELS 3 Zrotation Yrotation Xrotation
									End Site
									{
										OFFSET -0.41562 -0.00000 0.41562
									}
								}
							}
						}
					}
				}
			}
		}
	}
}
MOTION
Frames: 14
Frame Time: .0083333
15.2994 16.9766 16.0825 172.7430 2.3600 -167.7370 0.0000 0.0000 0.0000 -1.1887 -20.0092 -45.4462 0.9294 6.1415 17.1956 0.6317 16.0722 16.9662 1.0200 -6.4252 -18.0232 0.0000 0.0000 0.0000 14.4084 9.0710 6.1040 -1.8401 -8.5248 24.3199 -3.3348 3.0107 -33.8913 -2.8990 10.5297 -30.7097 -3.1578 -0.6947 -28.6358 -0.6870 0.5301 1.8566 1.2277 0.0664 17.4550 -1.3789 2.1198 -1.6298 0.2879 5.1950 23.0691 0.7750 3.2101 7.2931 0.0000 -0.0000 0.0000 -83.8689 8.4909 10.0512 10.7088 -17.8406 -1.6856 -0.0000 -0.0000 6.3059 18.1715 -12.8708 -4.1817 -7.1250 0.0000 -0.0000 -6.3026 16.5103 4.2778 0.0000 -0.0000 0.0000 86.1394 -4.0941 14.2000 -22.6332 33.6853 -6.9338 0.0000 -0.0000 -4.1520 -10.6145 -52.6443 8.4729 7.1250 -0.0000 -0.0000 66.1174 -75.0921 -51.3765
15.2468 16.9543 15.9913 172.8560 2.5318 -167.5230 0.0000 0.0000 0.0000 -1.2936 -19.9227 -45.5166 0.9561 6.2266 17.4433 0.7222 16.1767 17.7184 1.0311 -6.4588 -18.1217 0.0000 0.0000 0.0000 14.3025 9.0841 6.3628 -1.8136 -8.4665 24.1401 -3.3140 3.2239 -33.7357 -2.7535 10.2850 -29.9046 -3.0934 -0.6517 -28.5096 -0.7134 0.5661 1.7840 1.1776 0.0941 17.3039 -1.3551 2.0582 -1.6123 0.2617 5.0791 22.9327 0.7506 3.1459 7.2468 0.0000 0.0000 0.0000 -83.7767 8.6751 10.1866 10.8311 -18.0290 -1.7233 -0.0000 -0.0000 5.9373 18.1214 -12.6143 -4.0880 -7.1250 0.0000 -0.0000 -6.3329 16.7812 4.2611 0.0000 0.0000 0.0000 86.1784 -4.0976 14.4582 -22.8156 33.8865 -7.0352 0.0000 -0.0000 -4.2574 -10.6878 -52.8130 8.5507 7.1250 -0.0000 -0.0000 66.6941 -75.1726 -51.9880
15.1967 16.9350 15.9063 173.0070 2.5296 -167.3350 0.0000 0.0000 0.0000 -1.5192 -19.7266 -45.6174 0.9815 6.3064 17.6760 0.8385 16.0463 18.5480 1.1110 -6.6965 -18.8194 0.0000 0.0000 0.0000 14.3287 9.0226 6.5624 -1.8014 -8.4395 24.0570 -3.2850 3.0173 -33.6251 -2.8097 10.3804 -30.2176 -3.1009 -0.6564 -28.1554 -0.7192 0.5491 1.6680 1.1676 0.0942 16.9887 -1.2608 2.0761 -1.6275 0.3575 5.0561 22.8611 0.7622 3.1441 7.2249 -0.0000 0.0000 0.0000 -83.6951 8.8814 10.2246 10.9695 -18.2415 -1.7664 -0.0000 -0.0000 5.7273 17.8559 -12.5223 -3.9954 -7.1250 0.0000 -0.0000 -6.5156 16.8989 4.3689 -0.0000 0.0000 0.0000 86.3175 -4.1011 14.6115 -23.0343 34.1263 -7.1575 0.0000 -0.0000 -4.3527 -10.7175 -52.9932 8.5948 7.1250 -0.0000 -0.0000 67.3432 -75.2388 -52.6523
15.1360 16.9148 15.8091 173.1410 2.6953 -167.1380 0.0000 0.0000 0.0000 -1.6074 -19.7608 -45.5966 1.0117 6.3997 17.9486 0.8997 16.1427 19.0372 1.3348 -7.3157 -20.6539 0.0000 0.0000 0.0000 14.1513 8.9341 6.6846 -1.7941 -8.4232 24.0072 -3.2523 2.9953 -33.4555 -2.8296 10.4140 -30.3280 -3.0364 -0.5925 -28.0417 -0.7418 0.6089 1.6561 1.1308 0.1277 16.9168 -1.3431 1.3037 -1.7824 0.4046 4.1353 23.7761 0.7585 2.7429 7.5594 -0.0000 0.0000 0.0000 -83.7160 8.8319 9.8505 10.9889 -18.2712 -1.7724 -0.0000 -0.0000 5.9073 17.6674 -12.5723 -3.9660 -7.1250 0.0000 -0.0000 -6.6471 16.8624 4.4635 -0.0000 0.0000 0.0000 86.4002 -3.9515 14.8608 -23.1909 34.2969 -7.2456 0.0000 -0.0000 -4.6766 -10.7147 -53.0602 8.6000 7.1250 -0.0000 -0.0000 67.5902 -75.2574 -52.8984
15.0793 16.8924 15.7105 173.2650 2.9405 -166.9300 0.0000 0.0000 0.0000 -1.7224 -19.7432 -45.6055 1.0653 6.5617 18.4231 0.9772 16.0193 19.5553 1.7492 -8.3228 -23.6990 0.0000 0.0000 0.0000 13.9813 8.9006 6.9251 -1.7494 -8.3234 23.7007 -3.1954 3.2242 -33.1002 -2.6923 10.1795 -29.5600 -3.0727 -0.5482 -28.0079 -0.7397 0.6741 1.6988 1.1789 0.1496 16.9485 -1.3735 1.3308 -1.7855 0.5537 4.0629 23.4308 0.7975 2.6944 7.4409 0.0000 0.0000 0.0000 -83.7497 8.7088 9.4985 10.9959 -18.2820 -1.7746 -0.0000 -0.0000 5.9598 17.5188 -12.6335 -3.9494 -7.1250 0.0000 -0.0000 -6.7508 16.8111 4.5417 0.0000 0.0000 0.0000 86.4697 -3.7778 15.0847 -23.3877 34.5101 -7.3568 0.0000 -0.0000 -4.7771 -10.7282 -53.1248 8.6181 7.1250 -0.0000 -0.0000 67.8216 -75.2811 -53.1364
15.0264 16.8720 15.6142 173.3690 3.1683 -166.5750 0.0000 0.0000 0.0000 -1.8218 -19.7442 -45.7123 1.1167 6.7131 18.8682 1.0663 15.7511 20.1006 2.1177 -9.1071 -26.1310 0.0000 0.0000 0.0000 13.7959 8.8808 7.0092 -1.7090 -8.2318 23.4203 -3.1485 3.2059 -32.8502 -2.6931 10.1809 -29.5646 -3.1774 -0.5372 -27.9913 -0.7364 0.7239 1.6817 1.2604 0.1630 16.9160 -1.4712 1.6892 -1.8635 0.7745 4.3846 22.7811 0.8899 2.8155 7.2289 -0.0000 0.0000 0.0000 -83.7633 8.6415 9.3462 11.0100 -18.3036 -1.7791 -0.0000 -0.0000 5.9220 17.6908 -12.8642 -4.0620 -7.1250 0.0000 -0.0000 -6.6347 16.5579 4.4993 -0.0000 0.0000 0.0000 86.5034 -3.6935 15.3222 -23.6440 34.7856 -7.5025 0.0000 -0.0000 -4.5666 -10.8161 -53.4027 8.7203 7.1250 -0.0000 -0.0000 68.8213 -75.3923 -54.1776
14.9689 16.8534 15.5204 173.4930 3.3805 -166.1840 0.0000 0.0000 0.0000 -1.8579 -19.8677 -45.8196 1.1781 6.8889 19.3866 1.0384 14.9833 19.6517 2.5460 -9.9211 -28.7216 0.0000 0.0000 0.0000 13.6246 8.9374 6.8907 -1.7259 -8.2702 23.5378 -3.1527 2.9702 -32.9235 -2.7718 10.3161 -30.0066 -3.1987 -0.4950 -27.9357 -0.7894 0.7957 1.6531 1.2423 0.1976 16.8514 -1.5448 1.8926 -1.8789 1.0068 4.5307 22.3136 0.9735 2.8695 7.0683 0.0000 0.0000 0.0000 -83.6881 8.5959 9.3186 11.0750 -18.4032 -1.7995 -0.0000 -0.0000 5.7599 17.9512 -12.5391 -4.0234 -7.1250 0.0000 -0.0000 -6.4498 16.8736 4.3277 0.0000 0.0000 0.0000 86.5512 -3.5218 15.6725 -23.7532 34.9022 -7.5649 0.0000 -0.0000 -4.6061 -10.8955 -53.5767 8.8044 7.1250 -0.0000 -0.0000 69.4438 -75.4684 -54.8367
14.9152 16.8272 15.4370 173.8070 3.2611 -165.7180 0.0000 0.0000 0.0000 -1.8315 -19.8827 -46.3568 1.2999 7.2232 20.3782 0.9449 12.5211 18.2243 2.3120 -9.4878 -27.3335 0.0000 0.0000 0.0000 13.8289 8.9280 6.7073 -1.7384 -8.2985 23.6244 -3.1458 2.7953 -32.9241 -2.6873 10.1709 -29.5318 -3.1641 -0.5437 -27.7579 -0.7888 0.7144 1.5588 1.1905 0.1719 16.6537 -1.3956 1.8576 -1.9836 1.1240 4.4155 22.2352 0.9783 2.8245 7.0617 0.0000 0.0000 0.0000 -83.5064 8.6217 9.3257 11.1882 -18.5762 -1.8354 -0.0000 -0.0000 5.3948 18.1472 -12.3805 -4.0197 -7.1250 0.0000 -0.0000 -6.3115 17.0222 4.2132 0.0000 0.0000 0.0000 86.7483 -3.3359 15.9646 -23.7923 34.9439 -7.5873 0.0000 -0.0000 -4.9051 -10.8892 -53.4564 8.7858 7.1250 -0.0000 -0.0000 68.9923 -75.4342 -54.3816
14.8535 16.8024 15.3316 174.1060 3.4802 -165.3500 0.0000 0.0000 0.0000 -1.8353 -19.8096 -46.5068 1.3973 7.4780 21.1394 0.7691 10.1755 16.1558 3.3492 -11.2400 -33.0936 0.0000 0.0000 0.0000 13.7957 8.9091 6.6984 -1.7219 -8.2611 23.5099 -3.1031 2.9205 -32.6636 -2.6914 10.1779 -29.5549 -3.0289 -0.4404 -27.7526 -0.8215 0.8125 1.5242 1.1193 0.2301 16.6082 -1.3329 1.7574 -2.1290 1.2683 4.2399 22.3201 1.0078 2.7540 7.1144 -0.0000 0.0000 0.0000 -83.4017 8.6758 9.2017 11.2681 -18.6980 -1.8609 -0.0000 -0.0000 5.2385 18.5023 -12.7541 -4.2252 -7.1250 0.0000 -0.0000 -6.0715 16.6035 4.1068 -0.0000 0.0000 0.0000 86.9435 -3.2603 16.2116 -23.9568 35.1185 -7.6817 0.0000 -0.0000 -5.1343 -10.9001 -53.6307 8.8141 7.1250 -0.0000 -0.0000 69.6478 -75.4841 -55.0431
14.7944 16.7799 15.2326 174.4020 3.7767 -164.9380 0.0000 0.0000 0.0000 -1.7772 -19.6538 -46.6920 1.4796 7.6855 21.7629 0.6149 8.7038 14.3495 4.4621 -12.7512 -38.4441 0.0000 0.0000 0.0000 13.7110 8.9280 6.6507 -1.7090 -8.2317 23.4201 -3.0543 2.9773 -32.3831 -2.8441 10.4382 -30.4078 -2.9495 -0.3360 -27.6874 -0.8396 0.9233 1.5038 1.0991 0.2872 16.5491 -1.4047 1.6178 -2.2394 1.4684 3.9861 22.2750 1.0683 2.6333 7.1158 0.0000 0.0000 0.0000 -83.3452 8.5873 9.0288 11.2918 -18.7341 -1.8686 -0.0000 -0.0000 5.1965 18.6674 -12.8164 -4.2860 -7.1250 0.0000 -0.0000 -5.9586 16.5242 4.0399 0.0000 0.0000 0.0000 87.0665 -3.0788 16.6120 -24.1548 35.3275 -7.7959 0.0000 -0.0000 -5.4748 -10.9649 -54.0178 8.9102 7.1250 -0.0000 -0.0000 71.0988 -75.6022 -56.5245
14.7403 16.7589 15.1359 174.6210 3.9276 -164.5790 0.0000 0.0000 0.0000 -1.9385 -19.4602 -46.8542 1.5580 7.8774 22.3424 0.4873 7.3822 12.6954 5.0557 -13.4463 -41.0629 0.0000 0.0000 0.0000 13.6233 8.8677 6.6937 -1.6804 -8.1661 23.2196 -2.9855 2.9353 -32.0104 -2.8597 10.4644 -30.4940 -3.0818 -0.4301 -27.5630 -0.8170 0.8260 1.5823 1.1570 0.2268 16.5824 -1.6048 1.5524 -2.4742 1.8055 3.7657 22.0246 1.1927 2.5103 7.0665 0.0000 0.0000 0.0000 -83.3569 8.3247 8.6695 11.3239 -18.7830 -1.8789 -0.0000 -0.0000 5.0167 18.8333 -13.0407 -4.4009 -7.1250 0.0000 -0.0000 -5.8489 16.2755 3.9964 0.0000 0.0000 0.0000 87.1702 -2.6615 16.9679 -24.1746 35.3483 -7.8073 0.0000 -0.0000 -5.3724 -10.9641 -54.0566 8.9138 7.1250 -0.0000 -0.0000 71.2489 -75.6107 -56.6743
14.6801 16.7342 15.0254 174.6200 4.1952 -164.0370 0.0000 0.0000 0.0000 -2.3191 -19.3027 -47.1398 1.6222 8.0303 22.8062 0.3694 6.4150 11.0430 5.3302 -13.7462 -42.2303 0.0000 0.0000 0.0000 13.1976 9.0412 6.4998 -1.6947 -8.1988 23.3195 -2.9817 3.4230 -31.8861 -2.5294 9.8912 -28.6251 -3.5288 -0.5994 -27.5349 -0.7315 0.7442 1.4479 1.4649 0.1584 16.4025 -1.9492 1.8308 -2.3164 1.9874 4.1264 21.8196 1.3232 2.6641 6.9548 -0.0000 0.0000 0.0000 -83.5765 8.4498 8.4373 11.4215 -18.9314 -1.9104 -0.0000 -0.0000 4.7543 19.1864 -13.1994 -4.5429 -7.1250 0.0000 -0.0000 -5.6093 16.0777 3.8552 -0.0000 0.0000 0.0000 87.0459 -2.6348 17.2672 -24.1735 35.3472 -7.8067 0.0000 -0.0000 -5.0106 -10.9445 -53.9283 8.8835 7.1250 -0.0000 -0.0000 70.7648 -75.5739 -56.1812
14.6238 16.7167 14.9284 174.5850 4.1269 -163.5590 0.0000 0.0000 0.0000 -2.8748 -19.2302 -47.5116 1.6876 8.1825 23.2698 0.2976 5.5018 9.8641 5.4314 -13.8538 -42.6548 0.0000 0.0000 0.0000 12.9277 9.1033 6.3661 -1.7496 -8.3238 23.7021 -3.0320 3.9769 -32.0564 -2.2316 9.3327 -26.8417 -3.8990 -0.7189 -27.7055 -0.7897 0.7274 1.5987 1.5989 0.1128 16.6637 -2.6073 1.9674 -1.2192 2.7099 4.1154 20.6354 1.6085 2.6399 6.3499 -0.0000 0.0000 0.0000 -83.4398 7.8939 8.3855 11.3439 -18.8135 -1.8853 -0.0000 -0.0000 4.6632 19.4247 -13.2320 -4.6148 -7.1250 0.0000 -0.0000 -5.4459 16.0216 3.7485 -0.0000 0.0000 0.0000 87.1265 -2.0499 17.5998 -24.1217 35.2927 -7.7767 0.0000 -0.0000 -5.3811 -10.9767 -54.0468 8.9231 7.1250 -0.0000 -0.0000 71.2060 -75.6131 -56.6370
14.5677 16.7041 14.8337 174.5440 4.0555 -163.2050 0.0000 0.0000 0.0000 -3.4939 -19.1569 -47.8075 1.7571 8.3406 23.7534 0.2378 4.7747 8.7919 5.3759 -13.7950 -42.4223 0.0000 0.0000 0.0000 12.5829 8.9351 6.3406 -1.7386 -8.2989 23.6258 -2.9599 4.0331 -31.6448 -2.2703 9.4077 -27.0793 -4.4338 -0.8689 -26.7564 -0.7481 0.6547 1.1770 1.9064 0.0714 15.6857 -2.1985 1.6824 -2.3248 2.1503 3.9485 22.0271 1.4124 2.5827 7.0192 -0.0000 0.0000 0.0000 -83.4881 8.2410 8.3802 11.3051 -18.7544 -1.8728 -0.0000 -0.0000 4.6543 19.3308 -13.2300 -4.5901 -7.1250 0.0000 -0.0000 -5.5106 16.0323 3.7922 -0.0000 0.0000 0.0000 87.1097 -2.3645 17.7795 -24.0332 35.1994 -7.7257 0.0000 -0.0000 -5.6050 -11.0002 -54.0925 8.9474 7.1250 -0.0000 -0.0000 71.3772 -75.6326 -56.8188
